<svg width="10" height="10" viewBox="0 0 10 10" fill="none" xmlns="http://www.w3.org/2000/svg">
<g clip-path="url(#clip0_418:710)">
<path d="M0.62919 7.46715C0.711266 7.46726 0.792552 7.45112 0.868357 7.41965C0.944162 7.38819 1.01299 7.34202 1.07086 7.28382L4.26794 4.08716C4.36467 3.9904 4.47952 3.91365 4.60592 3.86128C4.73231 3.80892 4.86779 3.78196 5.00461 3.78196C5.14142 3.78196 5.2769 3.80892 5.4033 3.86128C5.5297 3.91365 5.64454 3.9904 5.74127 4.08716L8.93336 7.27965C8.99101 7.33935 9.05998 7.38696 9.13623 7.41972C9.21248 7.45247 9.29449 7.46971 9.37748 7.47044C9.46047 7.47116 9.54277 7.45534 9.61958 7.42392C9.69639 7.39249 9.76617 7.34608 9.82485 7.2874C9.88354 7.22872 9.92995 7.15894 9.96137 7.08213C9.9928 7.00532 10.0086 6.92302 10.0079 6.84003C10.0072 6.75704 9.98993 6.67503 9.95717 6.59878C9.92442 6.52252 9.8768 6.45356 9.81711 6.39591L6.62502 3.20341C6.19499 2.77417 5.61221 2.53309 5.00461 2.53309C4.39701 2.53309 3.81423 2.77417 3.38419 3.20341L0.187107 6.40007C0.0996415 6.48748 0.0400705 6.59887 0.0159312 6.72015C-0.00820798 6.84142 0.00416958 6.96713 0.0514977 7.08137C0.0988258 7.19561 0.178977 7.29324 0.28181 7.36191C0.384643 7.43058 0.505535 7.46721 0.62919 7.46715Z" fill="white"/>
</g>
<defs>
<clipPath id="clip0_418:710">
<rect width="10" height="10" fill="white" transform="matrix(1 0 0 -1 0 10)"/>
</clipPath>
</defs>
</svg>
