<svg width="10" height="10" viewBox="0 0 10 10" fill="none" xmlns="http://www.w3.org/2000/svg">
<g clip-path="url(#clip0_139:294)">
<path d="M0.62919 2.53292C0.711266 2.53281 0.792552 2.54896 0.868357 2.58042C0.944162 2.61189 1.01299 2.65805 1.07086 2.71626L4.26794 5.91292C4.36467 6.00967 4.47952 6.08643 4.60592 6.13879C4.73231 6.19116 4.86779 6.21811 5.00461 6.21811C5.14142 6.21811 5.2769 6.19116 5.4033 6.13879C5.5297 6.08643 5.64454 6.00967 5.74127 5.91292L8.93336 2.72042C8.99101 2.66073 9.05998 2.61311 9.13623 2.58036C9.21248 2.5476 9.29449 2.53036 9.37748 2.52964C9.46047 2.52892 9.54277 2.54473 9.61958 2.57616C9.69639 2.60758 9.76617 2.65399 9.82485 2.71268C9.88354 2.77136 9.92995 2.84114 9.96137 2.91795C9.9928 2.99476 10.0086 3.07706 10.0079 3.16005C10.0072 3.24303 9.98993 3.32505 9.95717 3.4013C9.92442 3.47755 9.8768 3.54652 9.81711 3.60417L6.62502 6.79667C6.19499 7.22591 5.61221 7.46698 5.00461 7.46698C4.39701 7.46698 3.81423 7.22591 3.38419 6.79667L0.187107 3.6C0.0996415 3.5126 0.0400705 3.40121 0.0159312 3.27993C-0.00820798 3.15866 0.00416958 3.03294 0.0514977 2.91871C0.0988258 2.80447 0.178977 2.70684 0.28181 2.63816C0.384643 2.56949 0.505535 2.53287 0.62919 2.53292Z" fill="white"/>
</g>
<defs>
<clipPath id="clip0_139:294">
<rect width="10" height="10" fill="white"/>
</clipPath>
</defs>
</svg>
