<svg width="18" height="18" viewBox="0 0 18 18" fill="none" xmlns="http://www.w3.org/2000/svg">
<path d="M0.75 2.55883H17.25C17.4489 2.55883 17.6397 2.47982 17.7803 2.33917C17.921 2.19851 18 2.00775 18 1.80884C18 1.60992 17.921 1.41916 17.7803 1.27851C17.6397 1.13786 17.4489 1.05884 17.25 1.05884H0.75C0.551088 1.05884 0.360322 1.13786 0.21967 1.27851C0.0790176 1.41916 0 1.60992 0 1.80884C0 2.00775 0.0790176 2.19851 0.21967 2.33917C0.360322 2.47982 0.551088 2.55883 0.75 2.55883Z" fill="#374957"/>
<path d="M3.75003 7.98535C3.55112 7.98535 3.36035 8.06437 3.2197 8.20502C3.07905 8.34567 3.00003 8.53644 3.00003 8.73535C3.00003 8.93426 3.07905 9.12503 3.2197 9.26568C3.36035 9.40633 3.55112 9.48535 3.75003 9.48535H14.25C14.4489 9.48535 14.6397 9.40633 14.7804 9.26568C14.921 9.12503 15 8.93426 15 8.73535C15 8.53644 14.921 8.34567 14.7804 8.20502C14.6397 8.06437 14.4489 7.98535 14.25 7.98535H3.75003Z" fill="#374957"/>
<path d="M17.25 14.9119H0.75C0.551088 14.9119 0.360322 14.9909 0.21967 15.1315C0.0790176 15.2722 0 15.463 0 15.6619C0 15.8608 0.0790176 16.0516 0.21967 16.1922C0.360322 16.3329 0.551088 16.4119 0.75 16.4119H17.25C17.4489 16.4119 17.6397 16.3329 17.7803 16.1922C17.921 16.0516 18 15.8608 18 15.6619C18 15.463 17.921 15.2722 17.7803 15.1315C17.6397 14.9909 17.4489 14.9119 17.25 14.9119Z" fill="#374957"/>
</svg>
