<svg width="22" height="22" viewBox="0 0 22 22" fill="none" xmlns="http://www.w3.org/2000/svg">
<path d="M16.5 5.50008C16.3281 5.32823 16.0949 5.23169 15.8519 5.23169C15.6088 5.23169 15.3757 5.32823 15.2038 5.50008L11 9.70391L6.79612 5.50008C6.62422 5.32823 6.39111 5.23169 6.14804 5.23169C5.90497 5.23169 5.67186 5.32823 5.49996 5.50008C5.32811 5.67198 5.23157 5.90509 5.23157 6.14816C5.23157 6.39123 5.32811 6.62434 5.49996 6.79624L9.70379 11.0001L5.49996 15.2039C5.32811 15.3758 5.23157 15.6089 5.23157 15.852C5.23157 16.0951 5.32811 16.3282 5.49996 16.5001C5.67186 16.6719 5.90497 16.7685 6.14804 16.7685C6.39111 16.7685 6.62422 16.6719 6.79612 16.5001L11 12.2962L15.2038 16.5001C15.3757 16.6719 15.6088 16.7685 15.8519 16.7685C16.0949 16.7685 16.3281 16.6719 16.5 16.5001C16.6718 16.3282 16.7683 16.0951 16.7683 15.852C16.7683 15.6089 16.6718 15.3758 16.5 15.2039L12.2961 11.0001L16.5 6.79624C16.6718 6.62434 16.7683 6.39123 16.7683 6.14816C16.7683 5.90509 16.6718 5.67198 16.5 5.50008Z" fill="#B11010"/>
</svg>
