<svg width="22" height="22" viewBox="0 0 22 22" fill="none" xmlns="http://www.w3.org/2000/svg">
<path d="M6.82115 11.4033L15.0161 3.20825L16.3132 4.50534L14.1316 6.687L18.8478 11.4033C19.3841 11.9395 19.3841 12.8103 18.8478 13.3466L13.8061 18.3883C13.5403 18.6587 13.1874 18.7916 12.8345 18.7916C12.4816 18.7916 12.1286 18.6587 11.8628 18.3883L6.82115 13.3466C6.2849 12.8103 6.2849 11.9395 6.82115 11.4033ZM17.2299 12.3749L12.8345 7.98409L8.43906 12.3749H17.2299ZM4.58448 13.7499C4.58448 13.7499 6.41781 15.7345 6.41781 16.9583C6.41781 17.9712 5.5974 18.7916 4.58448 18.7916C3.57156 18.7916 2.75115 17.9712 2.75115 16.9583C2.75115 15.7345 4.58448 13.7499 4.58448 13.7499Z" fill="#374957" fill-opacity="0.5"/>
</svg>
