<svg width="16" height="16" viewBox="0 0 16 16" fill="none" xmlns="http://www.w3.org/2000/svg">
<g clip-path="url(#clip0_244:259)">
<path d="M7.63499 9.34587C4.79383 9.60268 2.62927 12.0034 2.66699 14.8559V15.0005C2.66699 15.5528 3.11471 16.0005 3.66699 16.0005C4.21927 16.0005 4.66699 15.5528 4.66699 15.0005V14.8159C4.63693 13.0645 5.92943 11.5709 7.66699 11.3492C9.50115 11.1673 11.1355 12.5068 11.3174 14.3409C11.3281 14.4494 11.3336 14.5583 11.3336 14.6672V15.0005C11.3336 15.5528 11.7814 16.0005 12.3336 16.0005C12.8859 16.0005 13.3336 15.5528 13.3336 15.0005V14.6672C13.3304 11.7183 10.9372 9.33049 7.98843 9.33374C7.87052 9.3339 7.75265 9.33793 7.63499 9.34587Z" fill="#230B34"/>
<path d="M8.00049 8C10.2096 8 12.0005 6.20913 12.0005 4C12.0005 1.79087 10.2096 0 8.00049 0C5.79136 0 4.00049 1.79087 4.00049 4C4.00268 6.20822 5.79227 7.99778 8.00049 8ZM8.00049 2C9.10505 2 10.0005 2.89544 10.0005 4C10.0005 5.10456 9.10505 6 8.00049 6C6.89593 6 6.00049 5.10456 6.00049 4C6.00049 2.89544 6.89593 2 8.00049 2Z" fill="#230B34"/>
</g>
<defs>
<clipPath id="clip0_244:259">
<rect width="16" height="16" fill="white"/>
</clipPath>
</defs>
</svg>
