<svg width="24" height="24" viewBox="0 0 24 24" fill="none" xmlns="http://www.w3.org/2000/svg">
<rect width="24" height="24" rx="5" fill="#EEF2FF"/>
<g clip-path="url(#clip0_237:242)">
<path d="M12 18C13.1867 18 14.3467 17.6481 15.3334 16.9888C16.3201 16.3295 17.0892 15.3925 17.5433 14.2961C17.9974 13.1997 18.1162 11.9933 17.8847 10.8295C17.6532 9.66558 17.0818 8.59648 16.2426 7.75736C15.4035 6.91825 14.3344 6.3468 13.1705 6.11529C12.0067 5.88378 10.8003 6.0026 9.7039 6.45673C8.60754 6.91085 7.67047 7.67989 7.01118 8.66658C6.35189 9.65328 6 10.8133 6 12C6.00172 13.5908 6.63441 15.1159 7.75926 16.2407C8.88411 17.3656 10.4092 17.9983 12 18V18ZM12 8.5C12.1483 8.5 12.2933 8.54399 12.4167 8.6264C12.54 8.70881 12.6361 8.82595 12.6929 8.96299C12.7497 9.10003 12.7645 9.25083 12.7356 9.39632C12.7067 9.54181 12.6352 9.67544 12.5303 9.78033C12.4254 9.88522 12.2918 9.95665 12.1463 9.98559C12.0008 10.0145 11.85 9.99968 11.713 9.94291C11.5759 9.88615 11.4588 9.79002 11.3764 9.66668C11.294 9.54334 11.25 9.39834 11.25 9.25C11.25 9.05109 11.329 8.86032 11.4697 8.71967C11.6103 8.57902 11.8011 8.5 12 8.5ZM11.5 11H12C12.2652 11 12.5196 11.1054 12.7071 11.2929C12.8946 11.4804 13 11.7348 13 12V15C13 15.1326 12.9473 15.2598 12.8536 15.3536C12.7598 15.4473 12.6326 15.5 12.5 15.5C12.3674 15.5 12.2402 15.4473 12.1464 15.3536C12.0527 15.2598 12 15.1326 12 15V12H11.5C11.3674 12 11.2402 11.9473 11.1464 11.8536C11.0527 11.7598 11 11.6326 11 11.5C11 11.3674 11.0527 11.2402 11.1464 11.1464C11.2402 11.0527 11.3674 11 11.5 11V11Z" fill="#374957" fill-opacity="0.5"/>
</g>
<defs>
<clipPath id="clip0_237:242">
<rect width="12" height="12" fill="white" transform="translate(6 6)"/>
</clipPath>
</defs>
</svg>
