<svg width="24" height="24" viewBox="0 0 24 24" fill="none" xmlns="http://www.w3.org/2000/svg">
<rect width="24" height="24" rx="5" fill="#EEF2FF"/>
<g clip-path="url(#clip0_238:261)">
<path d="M17.547 14.3689C17.532 14.3534 16.3285 13.4274 16.3285 13.4274C16.0396 13.1524 15.6559 12.9993 15.257 12.9999C14.8582 13.0006 14.4749 13.1549 14.187 13.4309L13.237 14.2339C12.4585 13.9123 11.7513 13.4399 11.1561 12.844C10.5608 12.248 10.0892 11.5403 9.76847 10.7614L10.5685 9.81144C10.8439 9.52345 10.9978 9.14044 10.9983 8.74194C10.9988 8.34345 10.8457 7.96008 10.571 7.67144C10.571 7.67144 9.64597 6.46994 9.62997 6.45444C9.34487 6.16686 8.95797 6.00315 8.55305 5.99875C8.14812 5.99435 7.75775 6.14962 7.46647 6.43094L6.89197 6.93094C3.03147 11.0354 12.992 21.0004 17.092 17.0809L17.548 16.5559C17.8368 16.2654 17.9989 15.8722 17.9987 15.4625C17.9985 15.0528 17.8361 14.6593 17.547 14.3689Z" fill="#374957" fill-opacity="0.5"/>
</g>
<defs>
<clipPath id="clip0_238:261">
<rect width="12" height="12" fill="white" transform="translate(6 6)"/>
</clipPath>
</defs>
</svg>
