<svg width="24" height="24" viewBox="0 0 24 24" fill="none" xmlns="http://www.w3.org/2000/svg">
<rect width="24" height="24" rx="5" fill="#EEF2FF"/>
<g clip-path="url(#clip0_239:347)">
<path d="M17.977 8.77087L13.768 12.9799C13.2987 13.448 12.6629 13.7109 12 13.7109C11.3371 13.7109 10.7013 13.448 10.232 12.9799L6.023 8.77087C6.016 8.84987 6 8.92137 6 8.99987V14.9999C6.00079 15.6627 6.26444 16.2981 6.73311 16.7668C7.20178 17.2354 7.8372 17.4991 8.5 17.4999H15.5C16.1628 17.4991 16.7982 17.2354 17.2669 16.7668C17.7356 16.2981 17.9992 15.6627 18 14.9999V8.99987C18 8.92137 17.984 8.84987 17.977 8.77087Z" fill="#374957" fill-opacity="0.5"/>
<path d="M13.0611 12.2729L17.6281 7.70538C17.4068 7.33854 17.0948 7.0349 16.7221 6.82374C16.3493 6.61259 15.9285 6.50105 15.5001 6.49988H8.50007C8.07168 6.50105 7.65082 6.61259 7.27808 6.82374C6.90535 7.0349 6.59331 7.33854 6.37207 7.70538L10.9391 12.2729C11.2209 12.5535 11.6024 12.7111 12.0001 12.7111C12.3978 12.7111 12.7793 12.5535 13.0611 12.2729Z" fill="#374957" fill-opacity="0.5"/>
</g>
<defs>
<clipPath id="clip0_239:347">
<rect width="12" height="12" fill="white" transform="translate(6 6)"/>
</clipPath>
</defs>
</svg>
