<svg width="24" height="4" viewBox="0 0 24 4" fill="none" xmlns="http://www.w3.org/2000/svg">
<path d="M2.00002 4.00002C3.10459 4.00002 4.00003 3.10457 4.00003 1.99999C4.00003 0.895411 3.10459 -3.05176e-05 2.00002 -3.05176e-05C0.895438 -3.05176e-05 0 0.895411 0 1.99999C0 3.10457 0.895438 4.00002 2.00002 4.00002Z" fill="#374957"/>
<path d="M12 4.00002C13.1046 4.00002 14 3.10457 14 1.99999C14 0.895411 13.1046 -3.05176e-05 12 -3.05176e-05C10.8954 -3.05176e-05 9.99997 0.895411 9.99997 1.99999C9.99997 3.10457 10.8954 4.00002 12 4.00002Z" fill="#374957"/>
<path d="M22 4.00002C23.1046 4.00002 24 3.10457 24 1.99999C24 0.895411 23.1046 -3.05176e-05 22 -3.05176e-05C20.8954 -3.05176e-05 19.9999 0.895411 19.9999 1.99999C19.9999 3.10457 20.8954 4.00002 22 4.00002Z" fill="#374957"/>
</svg>
