<svg width="18" height="18" viewBox="0 0 18 18" fill="none" xmlns="http://www.w3.org/2000/svg">
<path d="M1.20512 13.5C1.82548 14.5767 3.20125 14.9466 4.27795 14.3262C4.27869 14.3258 4.27939 14.3254 4.28013 14.325L4.61387 14.1322C5.24387 14.6712 5.96801 15.0892 6.74985 15.3652V15.75C6.74985 16.9926 7.75722 18 8.99985 18C10.2425 18 11.2499 16.9926 11.2499 15.75V15.3652C12.0318 15.0888 12.756 14.6703 13.3858 14.1307L13.7211 14.3242C14.798 14.9456 16.1748 14.5762 16.7961 13.4992C17.4174 12.4223 17.0481 11.0455 15.9711 10.4242L15.6381 10.2322C15.788 9.41657 15.788 8.58041 15.6381 7.76472L15.9711 7.57273C17.048 6.95141 17.4174 5.57469 16.7961 4.49771C16.1748 3.42077 14.7981 3.05139 13.7211 3.6727L13.3874 3.86546C12.7567 3.32712 12.0321 2.90988 11.2499 2.63475V2.25C11.2499 1.00737 10.2425 0 8.99985 0C7.75722 0 6.74985 1.00737 6.74985 2.25V2.63475C5.96791 2.91118 5.24372 3.32968 4.61387 3.86926L4.27862 3.67502C3.20164 3.05367 1.82492 3.42306 1.2036 4.5C0.582287 5.57694 0.951639 6.9537 2.02862 7.57501L2.36162 7.767C2.21171 8.58266 2.21171 9.41882 2.36162 10.2345L2.02862 10.4265C0.954627 11.0495 0.586471 12.4235 1.20512 13.5ZM8.99985 6.00001C10.6567 6.00001 11.9998 7.34316 11.9998 9C11.9998 10.6568 10.6567 12 8.99985 12C7.34301 12 5.99987 10.6568 5.99987 9C5.99987 7.34316 7.34301 6.00001 8.99985 6.00001Z" fill="#00AAD2"/>
</svg>
