<svg width="18" height="18" viewBox="0 0 18 18" fill="none" xmlns="http://www.w3.org/2000/svg">
<g clip-path="url(#clip0_107:14)">
<path d="M5.25 0H3C1.34315 0 0 1.34315 0 3V5.25C0 6.90685 1.34315 8.25 3 8.25H5.25C6.90685 8.25 8.25 6.90685 8.25 5.25V3C8.25 1.34315 6.90685 0 5.25 0Z" fill="#00AAD2"/>
<path d="M14.9999 0H12.7499C11.093 0 9.74988 1.34315 9.74988 3V5.25C9.74988 6.90686 11.093 8.25001 12.7499 8.25001H14.9999C16.6567 8.25001 17.9999 6.90686 17.9999 5.25V3C17.9999 1.34315 16.6567 0 14.9999 0Z" fill="#00AAD2"/>
<path d="M5.25 9.75H3C1.34315 9.75 0 11.0931 0 12.75V15C0 16.6569 1.34315 18 3 18H5.25C6.90685 18 8.25 16.6569 8.25 15V12.75C8.25 11.0931 6.90685 9.75 5.25 9.75Z" fill="#00AAD2"/>
<path d="M14.9999 9.75H12.7499C11.093 9.75 9.74988 11.0931 9.74988 12.75V15C9.74988 16.6569 11.093 18 12.7499 18H14.9999C16.6567 18 17.9999 16.6569 17.9999 15V12.75C17.9999 11.0931 16.6567 9.75 14.9999 9.75Z" fill="#00AAD2"/>
</g>
<defs>
<clipPath id="clip0_107:14">
<rect width="18" height="18" fill="white"/>
</clipPath>
</defs>
</svg>
