<svg width="18" height="18" viewBox="0 0 18 18" fill="none" xmlns="http://www.w3.org/2000/svg">
<g clip-path="url(#clip0_108:13)">
<path d="M16.5001 13.638V13.5C16.4989 12.5058 16.1034 11.5526 15.4004 10.8496C14.6974 10.1466 13.7443 9.75114 12.7501 9.74995H9.75007V8.93245C10.8626 8.7444 11.8639 8.14525 12.5555 7.25375C13.2472 6.36225 13.5787 5.24345 13.4843 4.11907C13.3899 2.9947 12.8766 1.94679 12.0461 1.18303C11.2156 0.419273 10.1284 -0.00460815 9.00007 -0.00460815C7.87174 -0.00460815 6.78458 0.419273 5.95404 1.18303C5.1235 1.94679 4.61019 2.9947 4.51583 4.11907C4.42147 5.24345 4.75295 6.36225 5.44458 7.25375C6.13621 8.14525 7.13752 8.7444 8.25007 8.93245V9.74995H5.25007C4.25587 9.75114 3.30273 10.1466 2.59973 10.8496C1.89673 11.5526 1.50126 12.5058 1.50007 13.5V13.638C0.999655 13.8149 0.5779 14.163 0.309342 14.6208C0.0407842 15.0786 -0.0572845 15.6166 0.0324689 16.1398C0.122222 16.6629 0.394019 17.1374 0.799821 17.4795C1.20562 17.8216 1.7193 18.0093 2.25007 18.0093C2.78083 18.0093 3.29451 17.8216 3.70031 17.4795C4.10611 17.1374 4.37791 16.6629 4.46766 16.1398C4.55742 15.6166 4.45935 15.0786 4.19079 14.6208C3.92223 14.163 3.50048 13.8149 3.00007 13.638V13.5C3.00007 12.9032 3.23712 12.3309 3.65908 11.909C4.08103 11.487 4.65333 11.25 5.25007 11.25H8.25007V13.638C7.74966 13.8149 7.3279 14.163 7.05934 14.6208C6.79079 15.0786 6.69272 15.6166 6.78247 16.1398C6.87222 16.6629 7.14402 17.1374 7.54982 17.4795C7.95562 17.8216 8.4693 18.0093 9.00007 18.0093C9.53083 18.0093 10.0445 17.8216 10.4503 17.4795C10.8561 17.1374 11.1279 16.6629 11.2177 16.1398C11.3074 15.6166 11.2093 15.0786 10.9408 14.6208C10.6722 14.163 10.2505 13.8149 9.75007 13.638V11.25H12.7501C13.3468 11.25 13.9191 11.487 14.3411 11.909C14.763 12.3309 15.0001 12.9032 15.0001 13.5V13.638C14.4997 13.8149 14.0779 14.163 13.8093 14.6208C13.5408 15.0786 13.4427 15.6166 13.5325 16.1398C13.6222 16.6629 13.894 17.1374 14.2998 17.4795C14.7056 17.8216 15.2193 18.0093 15.7501 18.0093C16.2808 18.0093 16.7945 17.8216 17.2003 17.4795C17.6061 17.1374 17.8779 16.6629 17.9677 16.1398C18.0574 15.6166 17.9593 15.0786 17.6908 14.6208C17.4222 14.163 17.0005 13.8149 16.5001 13.638Z" fill="#00AAD2"/>
</g>
<defs>
<clipPath id="clip0_108:13">
<rect width="18" height="18" fill="white"/>
</clipPath>
</defs>
</svg>
