<svg width="24" height="24" viewBox="0 0 24 24" fill="none" xmlns="http://www.w3.org/2000/svg">
<path d="M4.0933 14.0826L3.57337 14.3824L3.13131 14.6373C3.13099 14.6374 3.13067 14.6376 3.13036 14.6378C2.10407 15.2338 1.75239 16.5472 2.34371 17.5763C2.93646 18.6042 4.24994 18.9576 5.27837 18.3659L4.0933 14.0826ZM4.0933 14.0826L3.98482 13.4924M4.0933 14.0826L3.98482 13.4924M3.98482 13.4924C3.80361 12.5064 3.80361 11.4956 3.98482 10.5096L4.0933 9.91938M3.98482 13.4924L4.0933 9.91938M4.0933 9.91938L3.57337 9.61962M4.0933 9.91938L3.57337 9.61962M3.57337 9.61962L3.12958 9.36375C3.12951 9.36371 3.12944 9.36368 3.12937 9.36364C2.1002 8.76975 1.74727 7.454 2.34106 6.42477C2.93476 5.39569 4.25012 5.04258 5.27935 5.63588C5.27958 5.63602 5.27981 5.63615 5.28005 5.63628L5.7257 5.89449L6.24714 6.19661M3.57337 9.61962L6.24714 6.19661M6.24714 6.19661L6.70481 5.80454M6.24714 6.19661L6.70481 5.80454M6.70481 5.80454C7.46507 5.15325 8.33921 4.64809 9.28311 4.3144L9.8498 4.11406M6.70481 5.80454L9.8498 4.11406M9.8498 4.11406V3.513M9.8498 4.11406V3.513M9.8498 3.513V3C9.8498 1.8126 10.8124 0.85 11.9998 0.85C13.1872 0.85 14.1498 1.8126 14.1498 3V3.513V4.11508M9.8498 3.513L14.1498 4.11508M14.1498 4.11508L14.7178 4.31485M14.1498 4.11508L14.7178 4.31485M14.7178 4.31485C15.662 4.64696 16.5367 5.1506 17.2979 5.80043L17.7548 6.19043M14.7178 4.31485L17.7548 6.19043M17.7548 6.19043L18.2749 5.89M17.7548 6.19043L18.2749 5.89M18.2749 5.89L18.7195 5.6332L18.2749 5.89ZM19.9063 9.91633L20.4262 9.61657L20.87 9.36071C21.8993 8.76688 22.2524 7.45105 21.6585 6.42172C21.0648 5.39254 19.7492 5.03945 18.7199 5.63298L19.9063 9.91633ZM19.9063 9.91633L20.0148 10.5066C20.196 11.4926 20.196 12.5034 20.0148 13.4893L19.9063 14.0796L20.4262 14.3793L20.87 14.6352M19.9063 9.91633L20.87 14.6352M20.87 14.6352C20.8701 14.6353 20.8702 14.6353 20.8702 14.6353C21.8994 15.2292 22.2523 16.545 21.6585 17.5742L22.3948 17.999L21.6585 17.5742C21.0647 18.6035 19.749 18.9565 18.7197 18.3628C18.7196 18.3628 18.7196 18.3628 18.7196 18.3627L18.2727 18.1048L17.7517 17.8041M20.87 14.6352L17.7517 17.8041M17.7517 17.8041L17.2948 18.1955M17.7517 17.8041L17.2948 18.1955M17.2948 18.1955C16.5345 18.8467 15.6604 19.3519 14.7165 19.6856L14.1498 19.8859M17.2948 18.1955L14.1498 19.8859M14.1498 19.8859V20.487M14.1498 19.8859V20.487M14.1498 20.487V21C14.1498 22.1874 13.1872 23.15 11.9998 23.15C10.8124 23.15 9.8498 22.1874 9.8498 21V20.487V19.8856M14.1498 20.487L9.8498 19.8856M9.8498 19.8856L9.28273 19.6854M9.8498 19.8856L9.28273 19.6854M9.28273 19.6854C8.33898 19.3523 7.46487 18.8477 6.70441 18.1971L6.24745 17.8061M9.28273 19.6854L6.24745 17.8061M6.24745 17.8061L5.72669 18.1069M6.24745 17.8061L5.72669 18.1069M5.72669 18.1069L5.28171 18.3639L5.27957 18.3652L5.72669 18.1069Z" stroke="#374957" stroke-opacity="0.5" stroke-width="1.7"/>
</svg>
