<svg width="10" height="10" viewBox="0 0 10 10" fill="none" xmlns="http://www.w3.org/2000/svg">
<path fill-rule="evenodd" clip-rule="evenodd" d="M8.52702 3.73984C8.75755 3.50807 8.93211 3.21744 8.98807 2.89533C9.0769 2.38222 8.91568 1.89234 8.56604 1.54029L7.97407 0.945615C7.38312 0.351462 6.41635 0.351462 5.82541 0.945615L5.50452 1.26876C5.44085 1.33277 5.44085 1.43653 5.50452 1.50054L8.01412 4.02376C8.07778 4.08777 8.18098 4.08777 8.24464 4.02376L8.52702 3.73984ZM3.68166 8.61154L7.49997 4.77716C7.56363 4.71315 7.56363 4.60939 7.49997 4.54538L4.99037 2.017C4.92671 1.95299 4.823 1.95299 4.75933 2.017L0.961051 5.83641C0.703828 6.09503 0.553396 6.44141 0.548775 6.80688L0.5 8.65026C0.5 8.75246 0.534399 8.84538 0.602171 8.91817C0.675076 8.98631 0.766979 9.02554 0.864015 9.02554H2.68563C3.0594 9.02554 3.41777 8.87635 3.68166 8.61154Z" fill="#374957" fill-opacity="0.5"/>
</svg>
