<svg width="14" height="14" viewBox="0 0 14 14" fill="none" xmlns="http://www.w3.org/2000/svg">
<g clip-path="url(#clip0_296:839)">
<path d="M13.829 13.0046L10.347 9.5227C11.2959 8.36221 11.7624 6.88141 11.6501 5.38661C11.5378 3.8918 10.8552 2.49734 9.74363 1.49166C8.63202 0.485992 7.17639 -0.0539518 5.67783 -0.0164832C4.17928 0.0209854 2.75245 0.633 1.69248 1.69297C0.632512 2.75294 0.0204971 4.17976 -0.0169715 5.67832C-0.05444 7.17687 0.485504 8.6325 1.49118 9.74412C2.49685 10.8557 3.89131 11.5383 5.38612 11.6506C6.88093 11.7629 8.36172 11.2964 9.52221 10.3475L13.0041 13.8294C13.1141 13.9357 13.2615 13.9945 13.4144 13.9932C13.5674 13.9918 13.7137 13.9305 13.8219 13.8223C13.93 13.7142 13.9914 13.5679 13.9927 13.4149C13.994 13.262 13.9352 13.1146 13.829 13.0046ZM5.83321 10.5004C4.91023 10.5004 4.00798 10.2267 3.24055 9.71389C2.47312 9.20111 1.87498 8.47227 1.52177 7.61955C1.16856 6.76683 1.07614 5.82852 1.25621 4.92327C1.43627 4.01803 1.88073 3.18651 2.53337 2.53386C3.18602 1.88122 4.01754 1.43676 4.92279 1.2567C5.82803 1.07663 6.76634 1.16905 7.61906 1.52226C8.47179 1.87547 9.20062 2.4736 9.7134 3.24103C10.2262 4.00846 10.4999 4.91072 10.4999 5.83369C10.4985 7.07095 10.0064 8.25712 9.1315 9.13199C8.25664 10.0069 7.07046 10.499 5.83321 10.5004Z" fill="#374957"/>
</g>
<defs>
<clipPath id="clip0_296:839">
<rect width="14" height="14" fill="white"/>
</clipPath>
</defs>
</svg>
