<svg width="10" height="10" viewBox="0 0 10 10" fill="none" xmlns="http://www.w3.org/2000/svg">
<g clip-path="url(#clip0_479_1006)">
<path d="M2.53285 9.37081C2.53274 9.28873 2.54888 9.20745 2.58035 9.13164C2.61181 9.05584 2.65798 8.98701 2.71618 8.92914L5.91284 5.73206C6.0096 5.63533 6.08635 5.52048 6.13872 5.39408C6.19108 5.26769 6.21804 5.13221 6.21804 4.99539C6.21804 4.85858 6.19108 4.7231 6.13872 4.5967C6.08635 4.4703 6.0096 4.35546 5.91284 4.25873L2.72035 1.06664C2.66065 1.00899 2.61304 0.940022 2.58028 0.86377C2.54753 0.787518 2.53029 0.705505 2.52956 0.622519C2.52884 0.539532 2.54466 0.457232 2.57608 0.380421C2.60751 0.303611 2.65392 0.233829 2.7126 0.175146C2.77128 0.116463 2.84106 0.0700541 2.91787 0.0386286C2.99468 0.0072031 3.07698 -0.00860977 3.15997 -0.00788879C3.24296 -0.00716782 3.32497 0.0100737 3.40122 0.0428286C3.47748 0.0755844 3.54644 0.123199 3.60409 0.182892L6.79659 3.37498C7.22583 3.80501 7.46691 4.38779 7.46691 4.99539C7.46691 5.60299 7.22583 6.18577 6.79659 6.61581L3.59993 9.81289C3.51252 9.90036 3.40113 9.95993 3.27985 9.98407C3.15858 10.0082 3.03287 9.99583 2.91863 9.9485C2.80439 9.90117 2.70676 9.82102 2.63809 9.71819C2.56942 9.61536 2.53279 9.49446 2.53285 9.37081Z" fill="#230B34"/>
</g>
<defs>
<clipPath id="clip0_479_1006">
<rect width="10" height="10" fill="white" transform="translate(0 10) rotate(-90)"/>
</clipPath>
</defs>
</svg>
