<svg width="14" height="14" viewBox="0 0 14 14" fill="none" xmlns="http://www.w3.org/2000/svg">
<path d="M14 7C14 8.85651 13.2625 10.637 11.9497 11.9497C10.637 13.2625 8.85651 14 7 14C5.14348 14 3.36301 13.2625 2.05025 11.9497C0.737498 10.637 0 8.85651 0 7C0 6.84529 0.0614582 6.69692 0.170854 6.58752C0.280251 6.47812 0.428624 6.41667 0.583333 6.41667C0.738043 6.41667 0.886416 6.47812 0.995812 6.58752C1.10521 6.69692 1.16667 6.84529 1.16667 7C1.16667 8.15372 1.50879 9.28154 2.14976 10.2408C2.79074 11.2001 3.70178 11.9478 4.76768 12.3893C5.83358 12.8308 7.00647 12.9463 8.13803 12.7212C9.26958 12.4962 10.309 11.9406 11.1248 11.1248C11.9406 10.309 12.4962 9.26958 12.7212 8.13803C12.9463 7.00647 12.8308 5.83358 12.3893 4.76768C11.9478 3.70178 11.2001 2.79074 10.2408 2.14976C9.28154 1.50879 8.15372 1.16667 7 1.16667C6.84529 1.16667 6.69692 1.10521 6.58752 0.995812C6.47812 0.886416 6.41667 0.738043 6.41667 0.583333C6.41667 0.428624 6.47812 0.280251 6.58752 0.170854C6.69692 0.0614582 6.84529 0 7 0C8.8559 0.0020073 10.6352 0.74015 11.9475 2.05247C13.2599 3.36479 13.998 5.1441 14 7ZM5.99492 6.41667H4.66667C4.51196 6.41667 4.36358 6.47812 4.25419 6.58752C4.14479 6.69692 4.08333 6.84529 4.08333 7C4.08333 7.15471 4.14479 7.30308 4.25419 7.41248C4.36358 7.52187 4.51196 7.58333 4.66667 7.58333H5.99492C6.084 7.73805 6.2075 7.87018 6.35586 7.9695C6.50421 8.06881 6.67344 8.13265 6.85043 8.15605C7.02742 8.17946 7.20742 8.16181 7.37649 8.10447C7.54557 8.04714 7.69917 7.95165 7.82541 7.82541C7.95165 7.69917 8.04714 7.54557 8.10447 7.37649C8.16181 7.20742 8.17946 7.02742 8.15605 6.85043C8.13265 6.67344 8.06881 6.50421 7.9695 6.35586C7.87018 6.2075 7.73805 6.084 7.58333 5.99492V4.08333C7.58333 3.92862 7.52187 3.78025 7.41248 3.67085C7.30308 3.56146 7.15471 3.5 7 3.5C6.84529 3.5 6.69692 3.56146 6.58752 3.67085C6.47812 3.78025 6.41667 3.92862 6.41667 4.08333V5.99492C6.24192 6.09658 6.09658 6.24192 5.99492 6.41667ZM1.06575 5.124C1.18112 5.124 1.2939 5.08979 1.38983 5.02569C1.48576 4.96159 1.56053 4.87049 1.60468 4.7639C1.64883 4.65731 1.66038 4.54002 1.63787 4.42686C1.61537 4.31371 1.55981 4.20977 1.47823 4.12819C1.39665 4.04661 1.29271 3.99105 1.17955 3.96854C1.0664 3.94603 0.949108 3.95759 0.842518 4.00174C0.735928 4.04589 0.644823 4.12066 0.580726 4.21658C0.516629 4.31251 0.482417 4.42529 0.482417 4.54067C0.482417 4.69538 0.543875 4.84375 0.653271 4.95315C0.762667 5.06254 0.91104 5.124 1.06575 5.124ZM2.46225 3.03742C2.57762 3.03742 2.6904 3.0032 2.78633 2.93911C2.88226 2.87501 2.95703 2.78391 3.00118 2.67732C3.04533 2.57072 3.05688 2.45344 3.03437 2.34028C3.01187 2.22712 2.95631 2.12318 2.87473 2.0416C2.79315 1.96002 2.68921 1.90447 2.57605 1.88196C2.4629 1.85945 2.34561 1.871 2.23902 1.91515C2.13243 1.9593 2.04132 2.03407 1.97723 2.13C1.91313 2.22593 1.87892 2.33871 1.87892 2.45408C1.87892 2.60879 1.94037 2.75717 2.04977 2.86656C2.15917 2.97596 2.30754 3.03742 2.46225 3.03742ZM4.53775 1.65725C4.65312 1.65725 4.7659 1.62304 4.86183 1.55894C4.95776 1.49484 5.03253 1.40374 5.07668 1.29715C5.12083 1.19056 5.13238 1.07327 5.10987 0.960114C5.08737 0.846958 5.03181 0.743018 4.95023 0.661438C4.86865 0.579857 4.76471 0.5243 4.65155 0.501792C4.5384 0.479284 4.42111 0.490836 4.31452 0.534987C4.20793 0.579138 4.11682 0.653905 4.05273 0.749834C3.98863 0.845763 3.95442 0.958544 3.95442 1.07392C3.95442 1.22863 4.01587 1.377 4.12527 1.4864C4.23467 1.59579 4.38304 1.65725 4.53775 1.65725Z" fill="#374957" fill-opacity="0.5"/>
</svg>
