<svg width="18" height="18" fill="none" xmlns="http://www.w3.org/2000/svg"><path fill-rule="evenodd" clip-rule="evenodd" d="M12.119 6.175A3.155 3.155 0 018.962 9.35a3.155 3.155 0 01-3.157-3.175A3.154 3.154 0 018.962 3a3.154 3.154 0 013.157 3.175zM8.962 15c-2.574 0-4.77-.408-4.77-2.04 0-1.632 2.182-2.055 4.77-2.055 2.573 0 4.77.408 4.77 2.04 0 1.632-2.183 2.055-4.77 2.055zm4.506-8.768a4.32 4.32 0 01-.738 2.43.119.119 0 00.08.184c.117.02.239.032.362.035 1.233.032 2.339-.765 2.644-1.966.453-1.784-.876-3.386-2.568-3.386-.184 0-.36.02-.532.055-.023.006-.048.016-.061.037-.016.026-.005.06.012.083.508.716.8 1.59.8 2.528zm2.04 3.902c.829.163 1.373.495 1.599.979.19.396.19.856 0 1.252-.345.749-1.458.99-1.89 1.051-.09.014-.162-.064-.152-.154.22-2.075-1.537-3.06-1.991-3.286-.02-.01-.024-.025-.022-.035a.032.032 0 01.024-.02c.984-.018 2.042.118 2.433.213zM4.829 8.881a2.4 2.4 0 00.362-.035.119.119 0 00.08-.183 4.324 4.324 0 01-.738-2.431c0-.938.293-1.812.802-2.528.016-.023.027-.057.012-.083a.106.106 0 00-.062-.037 2.64 2.64 0 00-.532-.055c-1.692 0-3.021 1.602-2.568 3.386.305 1.2 1.412 1.998 2.644 1.966zm.12 1.06c.002.01-.002.025-.021.036-.455.226-2.213 1.21-1.992 3.285.01.09-.062.168-.151.155-.433-.062-1.545-.303-1.89-1.052a1.437 1.437 0 010-1.252c.225-.483.77-.816 1.597-.979.392-.095 1.449-.23 2.433-.212a.03.03 0 01.024.019z" fill="#374957" fill-opacity=".5"/></svg>