<svg width="24" height="24" fill="none" xmlns="http://www.w3.org/2000/svg"><rect width="24" height="24" rx="5" fill="#EEF2FF"/><g clip-path="url(#clip0_239:347)" fill="#374957" fill-opacity=".5"><path d="M17.977 8.77l-4.209 4.21a2.504 2.504 0 01-3.536 0L6.023 8.77C6.016 8.85 6 8.922 6 9v6a2.503 2.503 0 002.5 2.5h7A2.503 2.503 0 0018 15V9c0-.079-.016-.15-.023-.23z"/><path d="M13.061 12.273l4.567-4.568A2.494 2.494 0 0015.5 6.5h-7a2.493 2.493 0 00-2.128 1.205l4.567 4.568a1.504 1.504 0 002.122 0z"/></g><defs><clipPath id="clip0_239:347"><path fill="#fff" transform="translate(6 6)" d="M0 0h12v12H0z"/></clipPath></defs></svg>