<svg width="24" height="24" fill="none" xmlns="http://www.w3.org/2000/svg"><rect width="24" height="24" rx="5" fill="#EEF2FF"/><g clip-path="url(#clip0_238:261)"><path d="M17.547 14.369c-.015-.016-1.219-.942-1.219-.942a1.55 1.55 0 00-2.141.004l-.95.803a6.389 6.389 0 01-3.469-3.473l.8-.95a1.55 1.55 0 00.003-2.14S9.646 6.47 9.63 6.454a1.54 1.54 0 00-2.164-.023l-.574.5c-3.86 4.104 6.1 14.07 10.2 10.15l.456-.525a1.55 1.55 0 00-.001-2.187z" fill="#374957" fill-opacity=".5"/></g><defs><clipPath id="clip0_238:261"><path fill="#fff" transform="translate(6 6)" d="M0 0h12v12H0z"/></clipPath></defs></svg>