<svg width="15" height="14" fill="none" xmlns="http://www.w3.org/2000/svg"><g clip-path="url(#clip0_514_1819)" fill="#374957" fill-opacity=".5"><path d="M11.583 1.167H11V.583a.583.583 0 00-1.167 0v.584H5.167V.583A.583.583 0 004 .583v.584h-.583A2.92 2.92 0 00.5 4.083v7A2.92 2.92 0 003.417 14h8.166a2.92 2.92 0 002.917-2.917v-7a2.92 2.92 0 00-2.917-2.916zM1.667 4.083a1.75 1.75 0 011.75-1.75h8.166a1.75 1.75 0 011.75 1.75v.584H1.667v-.584zm9.916 8.75H3.417a1.75 1.75 0 01-1.75-1.75v-5.25h11.666v5.25a1.75 1.75 0 01-1.75 1.75z"/><path d="M7.5 9.625a.875.875 0 100-1.75.875.875 0 000 1.75zm-2.917 0a.875.875 0 100-1.75.875.875 0 000 1.75zm5.834 0a.875.875 0 100-1.75.875.875 0 000 1.75z"/></g><defs><clipPath id="clip0_514_1819"><path fill="#fff" transform="translate(.5)" d="M0 0h14v14H0z"/></clipPath></defs></svg>