<svg width="24" height="24" fill="none" xmlns="http://www.w3.org/2000/svg"><g clip-path="url(#clip0_432:232)" fill="#374957"><path d="M24 11.247A12.012 12.012 0 1012.017 24H19a5.005 5.005 0 005-5v-7.753zM22 19a3 3 0 01-3 3h-6.983a10.04 10.04 0 01-7.476-3.343 9.917 9.917 0 01-2.476-7.814 10.043 10.043 0 018.656-8.76c.431-.055.865-.082 1.3-.083A9.92 9.92 0 0118.4 4.3a10.041 10.041 0 013.6 7.042V19z"/><path d="M8 9h4a1 1 0 000-2H8a1 1 0 100 2zm8 2H8a1 1 0 100 2h8a1 1 0 000-2zm0 4H8a1 1 0 000 2h8a1 1 0 100-2z"/></g><defs><clipPath id="clip0_432:232"><path fill="#fff" d="M0 0h24v24H0z"/></clipPath></defs></svg>