<svg width="18" height="18" fill="none" xmlns="http://www.w3.org/2000/svg"><g clip-path="url(#clip0_285:415)" fill="#374957" fill-opacity=".5"><path d="M5.25 0H3a3 3 0 00-3 3v2.25a3 3 0 003 3h2.25a3 3 0 003-3V3a3 3 0 00-3-3zM15 0h-2.25a3 3 0 00-3 3v2.25a3 3 0 003 3H15a3 3 0 003-3V3a3 3 0 00-3-3zM5.25 9.75H3a3 3 0 00-3 3V15a3 3 0 003 3h2.25a3 3 0 003-3v-2.25a3 3 0 00-3-3zm9.75 0h-2.25a3 3 0 00-3 3V15a3 3 0 003 3H15a3 3 0 003-3v-2.25a3 3 0 00-3-3z"/></g><defs><clipPath id="clip0_285:415"><path fill="#fff" d="M0 0h18v18H0z"/></clipPath></defs></svg>