<svg width="18" height="18" fill="none" xmlns="http://www.w3.org/2000/svg"><path d="M1.205 13.5a2.25 2.25 0 003.073.826l.002-.001.334-.193c.63.54 1.354.957 2.136 1.233v.385a2.25 2.25 0 004.5 0v-.385a6.73 6.73 0 002.136-1.234l.335.193a2.251 2.251 0 102.25-3.9l-.333-.192c.15-.815.15-1.652 0-2.467l.333-.192a2.251 2.251 0 00-2.25-3.9l-.334.192a6.734 6.734 0 00-2.137-1.23V2.25a2.25 2.25 0 00-4.5 0v.385a6.732 6.732 0 00-2.136 1.234l-.335-.194a2.251 2.251 0 10-2.25 3.9l.333.192a6.825 6.825 0 000 2.468l-.333.192a2.254 2.254 0 00-.824 3.073zM9 6a3 3 0 110 6 3 3 0 010-6z" fill="#374957" fill-opacity=".5"/></svg>