<svg width="24" height="24" fill="none" xmlns="http://www.w3.org/2000/svg"><path d="M4.093 14.083l-.52.3-.442.254s0 0 0 0a2.156 2.156 0 00-.787 2.94 2.15 2.15 0 002.934.789l-1.185-4.283zm0 0l-.108-.59m.108.59l-.108-.59m0 0a8.251 8.251 0 010-2.983l.108-.59m-.108 3.572l.108-3.573m0 0l-.52-.3m.52.3l-.52-.3m0 0l-.443-.255s0 0 0 0a2.152 2.152 0 012.15-3.728l.446.258.521.303M3.573 9.62l2.674-3.423m0 0l.458-.392m-.458.392l.458-.392m0 0a8.126 8.126 0 012.578-1.49l.567-.2m-3.145 1.69l3.145-1.69m0 0v-.602m0 .601v-.601m0 0V3a2.15 2.15 0 014.3 0v1.115m-4.3-.602l4.3.602m0 0l.568.2m-.568-.2l.568.2m0 0a8.127 8.127 0 012.58 1.485l.457.39m-3.037-1.875l3.037 1.875m0 0l.52-.3m-.52.3l.52-.3m0 0l.445-.257-.445.257zm1.631 4.026l.52-.3.444-.255a2.152 2.152 0 00-2.15-3.728l1.186 4.283zm0 0l.109.59a8.25 8.25 0 010 2.983l-.109.59.52.3.444.256m-.964-4.719l.964 4.72m0 0s0 0 0 0a2.152 2.152 0 01.788 2.938l.737.425-.736-.425a2.152 2.152 0 01-2.94.789s0 0 0 0l-.446-.258-.521-.3m3.118-3.17l-3.118 3.17m0 0l-.457.39m.457-.39l-.457.39m0 0a8.128 8.128 0 01-2.579 1.49l-.566.2m3.145-1.69l-3.145 1.69m0 0v.602m0-.601v.601m0 0V21a2.15 2.15 0 01-4.3 0v-1.114m4.3.601l-4.3-.601m0 0l-.567-.2m.567.2l-.567-.2m0 0a8.127 8.127 0 01-2.579-1.489l-.457-.39m3.036 1.878l-3.036-1.879m0 0l-.52.3m.52-.3l-.52.3m0 0l-.445.258-.002.001.447-.258z" stroke="#374957" stroke-opacity=".5" stroke-width="1.7"/></svg>