<svg width="10" height="10" fill="none" xmlns="http://www.w3.org/2000/svg"><path fill-rule="evenodd" clip-rule="evenodd" d="M8.527 3.74c.23-.232.405-.523.461-.845a1.526 1.526 0 00-.422-1.355L7.974.946a1.518 1.518 0 00-2.149 0l-.32.323a.165.165 0 000 .232l2.51 2.523a.162.162 0 00.23 0l.282-.284zM3.682 8.612L7.5 4.777a.165.165 0 000-.232L4.99 2.017a.163.163 0 00-.23 0l-3.8 3.82a1.403 1.403 0 00-.412.97L.5 8.65c0 .102.034.195.102.268a.383.383 0 00.262.108h1.822c.373 0 .732-.15.996-.414z" fill="#374957" fill-opacity=".5"/></svg>