<svg width="14" height="14" fill="none" xmlns="http://www.w3.org/2000/svg"><path d="M14 7A7 7 0 110 7a.583.583 0 011.167 0A5.833 5.833 0 107 1.167.583.583 0 017 0a7.007 7.007 0 017 7zm-8.005-.583H4.667a.583.583 0 100 1.166h1.328a1.163 1.163 0 101.588-1.588V4.083a.583.583 0 00-1.166 0v1.912a1.17 1.17 0 00-.422.422zm-4.93-1.293a.583.583 0 100-1.167.583.583 0 000 1.167zm1.397-2.087a.583.583 0 100-1.166.583.583 0 000 1.166zm2.076-1.38a.583.583 0 100-1.166.583.583 0 000 1.166z" fill="#374957" fill-opacity=".5"/></svg>